<svg id="Calque_1" data-name="Calque 1" xmlns="http://www.w3.org/2000/svg" xmlns:xlink="http://www.w3.org/1999/xlink" viewBox="0 0 252 144"><defs><style>.cls-1,.cls-4{fill:none;}.cls-2{clip-path:url(#clip-path);}.cls-3{fill:#1d1d1b;}.cls-4{stroke:#1d1d1b;stroke-miterlimit:10;stroke-width:0.06px;}</style><clipPath id="clip-path"><rect class="cls-1" x="26.64" y="22.3" width="198.72" height="99.4"/></clipPath></defs><g class="cls-2"><path class="cls-3" d="M152,41.14a6.78,6.78,0,0,1,1.91,3.7l-5.34,2.64a21.13,21.13,0,0,1-5.47,1.87,8.52,8.52,0,0,1,.86-3,13.84,13.84,0,0,1,1.56-2.41c.59-.73,1.2-1.45,1.84-2.16a14.48,14.48,0,0,0,1.72-2.35A6.54,6.54,0,0,1,152,41.14m-9.37,27.28A18.5,18.5,0,0,0,145.07,70a27,27,0,0,0,3.09,1.39q1.77.69,4.6,1.56a66.25,66.25,0,0,0,9.29,2.31A10.33,10.33,0,0,0,168,74.7a1.85,1.85,0,0,0,1-.49,4.17,4.17,0,0,0,.63-.85c.18-.32.36-.64.55-1a2.79,2.79,0,0,1,.71-.82,1.6,1.6,0,0,0-.58,0,.29.29,0,0,1-.36-.17,2.45,2.45,0,0,0,.44-1.45,7.83,7.83,0,0,0-.2-1.83,6.94,6.94,0,0,0-2.09-3.42c-1.17,0-2.08,0-2.73-.08s-1.27-.09-1.89-.17-1.3-.19-2.05-.32l-3.15-.51c-1.34-.21-2.39-.41-3.15-.59a14.09,14.09,0,0,1-2.11-.65,18.89,18.89,0,0,1-2.11-1c-.74-.41-1.75-1-3-1.63,0-.25,0-.38-.22-.37s-.27-.08-.28-.28a50,50,0,0,1,5.51-2.38,38,38,0,0,0,5.72-2.67,16.12,16.12,0,0,0,4.46-3.72,8.54,8.54,0,0,0,1.8-5.58,2.56,2.56,0,0,0-.06-.84,5,5,0,0,0-.24-.6,1.51,1.51,0,0,1-.15-.56,1.74,1.74,0,0,1,.11-.66,18.47,18.47,0,0,1-1.24-2.33l-1.09-2.46A21.39,21.39,0,0,0,161,35a7,7,0,0,0-1.62-1.85l-.07-.91a11.69,11.69,0,0,1-1.08-.66,6,6,0,0,0-1.08-.57,9.83,9.83,0,0,0-3.31-2.88c-1.3-.7-2.49-1.4-3.56-2.09a9,9,0,0,0-4.79,2.25,23.17,23.17,0,0,0-3.29,3.92c-1,1.45-1.92,2.93-2.84,4.45a16.81,16.81,0,0,1-3.25,4,2,2,0,0,0-1.32-.79,3.83,3.83,0,0,0-1.89-.06,19.41,19.41,0,0,0-1,3.75q-.33,2-.6,4.11c-.18,1.4-.39,2.81-.62,4.23a32.41,32.41,0,0,1-1,4.17,4.57,4.57,0,0,1,.14,1,8.83,8.83,0,0,1,0,1.15,3.52,3.52,0,0,1-.17.94c-.08.23-.23.28-.45.14a3.78,3.78,0,0,1,.39,2.2c-.11.73-.25,1.45-.43,2.18a19.77,19.77,0,0,0-.41,2.33c-.09.83-.19,1.7-.28,2.63a9.26,9.26,0,0,1,.61,1c.18.35.4.51.65.49a1.78,1.78,0,0,0,0,.89,4.49,4.49,0,0,0,.24.67,5.53,5.53,0,0,1,.24.75,2.58,2.58,0,0,1,0,1c.55-.14.9,0,1.05.31a9.69,9.69,0,0,1,.43,1.12,2.21,2.21,0,0,1,1,.12,3.29,3.29,0,0,1,.6.34,2.69,2.69,0,0,0,.56.3,1.58,1.58,0,0,0,1-.06,6.34,6.34,0,0,0,.8-.75,1.58,1.58,0,0,1,1.35-.33,14.21,14.21,0,0,0,1.72-3.38A42.26,42.26,0,0,0,140,66.38l2.64,2m-27.85-37.8a13,13,0,0,0-2.29-1.53,3.66,3.66,0,0,0-2,2.36,1,1,0,0,0,.08,1.07l.21.83a1.78,1.78,0,0,1-1.17,1.92c0,1.44-.09,3-.25,4.59a35.05,35.05,0,0,1-.89,4.93,31,31,0,0,1-1.65,4.84,19.23,19.23,0,0,1-2.51,4.2q-1.48,1.88-2.84,3.31a20.08,20.08,0,0,1-6.25,4.5,39.84,39.84,0,0,1-4.06,1.63l-1.29.24-.53-1a12.44,12.44,0,0,1-.86-3,23.52,23.52,0,0,1-.34-3.74A25.35,25.35,0,0,1,88.45,52a13,13,0,0,1,1-3.44,10.23,10.23,0,0,0-.77-2.67,29.38,29.38,0,0,0-1.29-2.64c-.24-.49-.47-1-.67-1.37a8.93,8.93,0,0,1-.51-1.23,3.57,3.57,0,0,1-1.81-1.18A17.9,17.9,0,0,1,83.29,38a4.53,4.53,0,0,0-.85-1.17,1.92,1.92,0,0,0-1.47-.2c-.23.37-.51.79-.84,1.25a2.8,2.8,0,0,1-1.54,1A19.29,19.29,0,0,0,78.12,42c-.06.67-.13,1.37-.23,2.12s-.19,1.69-.27,2.82l.06.84a25.58,25.58,0,0,0-.63,7.91q.26,4.39.86,9.65l.16,1.22a2.54,2.54,0,0,0,.41.39,2.26,2.26,0,0,1,.42.39l1.8,1.72-1.27.47c.34.49.66,1,.95,1.43s.58,1,.87,1.51c.47.89,1,1.71,1.44,2.47a4.17,4.17,0,0,0,2.07,1.66,1.91,1.91,0,0,1,.86.17,1.48,1.48,0,0,1,.74.79,32.47,32.47,0,0,0,3.61,0c.56,0,1.16,0,1.8,0s1.39,0,2.27,0c2.07-1.06,3.93-2,5.59-2.92a32.8,32.8,0,0,0,4.41-2.8,20.58,20.58,0,0,0,3.41-3.31,23,23,0,0,0,2.76-4.45l.7-1,1-.38.17-1.93,1.56.43a2.51,2.51,0,0,0,.34-.64,6.74,6.74,0,0,1,.33-.72c.18-.37.35-.72.51-1.07a3.77,3.77,0,0,1,.58-.92c.39-1,.92-2.29,1.58-3.72s1.35-3.06,2-4.9c.12-1.23.23-2.42.33-3.55A26.54,26.54,0,0,1,120,42a11.92,11.92,0,0,0-.67-2.45q-.42-1-.87-2c-.36-.75-.7-1.52-1-2.31a14.2,14.2,0,0,1-.74-2.87c-.6-.57-1.24-1.14-1.92-1.7M63.75,35a7.28,7.28,0,0,1-2.1-2c.08.46,0,.6-.32.45s-.52,0-.69.47a2,2,0,0,1-1.35-.6q-3.16.84-5.66,1.32c-1.67.32-3.27.65-4.8,1s-3.1.75-4.68,1.21-3.36,1.11-5.35,1.91c-1.1.34-2.16.64-3.16.91a20.35,20.35,0,0,0-2.77,1,10.74,10.74,0,0,0-2.33,1.35,6.6,6.6,0,0,0-1.74,2,15.46,15.46,0,0,1,.72,2.52c.16.83.34,1.64.55,2.42A11.69,11.69,0,0,0,31,51.17a6.31,6.31,0,0,0,1.72,2.07c-.29,1-.6,1.9-.92,2.71s-.66,1.62-1,2.41-.64,1.61-.94,2.45-.57,1.73-.81,2.66c-.36,0-.56.08-.59.31a.54.54,0,0,1-.43.46,2.32,2.32,0,0,1-.36,2,4.78,4.78,0,0,0-.81,2.12,8.34,8.34,0,0,0,.05,2.38c.14.86.32,1.73.53,2.61s.43,1.72.64,2.53a21.12,21.12,0,0,1,.46,2.19,1.76,1.76,0,0,1,1.11,1,2.45,2.45,0,0,0,.89,1.21,7.81,7.81,0,0,0,3.88,1.76,22.13,22.13,0,0,0,4.86.31,32.2,32.2,0,0,0,4.94-.57c1.62-.32,3-.65,4.16-1a2.88,2.88,0,0,1,1.08.11,1.91,1.91,0,0,0,1.15,0c1.85-.49,3.55-.91,5.09-1.28a23.6,23.6,0,0,0,4.16-1.36A10.31,10.31,0,0,0,63.09,76a11.47,11.47,0,0,0,2.36-4,.61.61,0,0,1-.66-.15,1.69,1.69,0,0,1-.31-.63c-.07-.25-.15-.51-.25-.79a1.64,1.64,0,0,0-.47-.69,1.5,1.5,0,0,1-1.17-.23,7,7,0,0,1-.94-.82c-.3-.31-.62-.64-.95-1a2.45,2.45,0,0,0-1.13-.73,19.15,19.15,0,0,1-3.79,1.15,10,10,0,0,0-3.55,1.36,28,28,0,0,0-4,.39l-3.1.61c-1,.19-2.09.36-3.23.49a23.93,23.93,0,0,1-4.34,0,30.87,30.87,0,0,1,1.49-4,25.31,25.31,0,0,1,2-3.59,6.07,6.07,0,0,0,2.12.12,4.47,4.47,0,0,1,2,.2,2.57,2.57,0,0,1,1.7-.35,2.53,2.53,0,0,0,1.7-.35,1,1,0,0,0,.51.2l.58,0a10.84,10.84,0,0,0,3.3-.58,14.69,14.69,0,0,0,2.74-1.31,20.1,20.1,0,0,0,2.45-1.74c.78-.64,1.55-1.27,2.33-1.89a2.86,2.86,0,0,0,.08-1.5A4.7,4.7,0,0,0,60,54.78a2.13,2.13,0,0,1-1.36-.17,5.89,5.89,0,0,1-1.16-.8c-.39-.33-.77-.68-1.15-1a8,8,0,0,0-1.14-.88c-.06-.19,0-.34.05-.42s.11-.25,0-.5c-2.08.2-4.2.47-6.35.83a34.56,34.56,0,0,1-5.91.49,2.35,2.35,0,0,1-.28-1.17,3,3,0,0,0-.36-1.4c.45-.18.89-.36,1.34-.51a2.6,2.6,0,0,0,1.1-.73,4.48,4.48,0,0,0,2.32-.4A2.19,2.19,0,0,1,49,48a14.74,14.74,0,0,1,4.94-2.34c1.69-.43,3.33-.84,4.94-1.23a18.65,18.65,0,0,0,4.45-1.69,8.89,8.89,0,0,0,3.46-3.81,3,3,0,0,1-.21-.79,2.09,2.09,0,0,1,0-.5c0-.16,0-.32,0-.5a3.49,3.49,0,0,0-.09-.8A12.6,12.6,0,0,1,63.75,35"/><path class="cls-3" d="M205.89,104.56a1.84,1.84,0,0,1,.24-.64q.17-.3.36-.6a1.84,1.84,0,0,0,.24-.64.51.51,0,0,0,.43-.37l.25-.78a6.58,6.58,0,0,1,.28-.82,1,1,0,0,1,.54-.54,13.78,13.78,0,0,0,2.64,4,19.45,19.45,0,0,0,3.55,2.91,4.28,4.28,0,0,0,2.05.18,3.38,3.38,0,0,0,1.33-.65,7.82,7.82,0,0,0,1-1,4.17,4.17,0,0,1,1.08-.88c-.15-.29-.16-.47-.06-.55s.15-.22.11-.44c.2,0,.32,0,.35.11s.1,0,.22-.08c.26-.57.52-1.15.76-1.72a4,4,0,0,1,1-1.48,14.84,14.84,0,0,1,.46-2.19c.22-.78.42-1.55.6-2.3a12.16,12.16,0,0,1,0-2.24c.05-.69.12-1.36.2-2s.18-1.29.28-2a15.77,15.77,0,0,0,.19-2.14,2,2,0,0,0,.6-.69,3.13,3.13,0,0,0,.3-.86c.07-.31.13-.62.19-.93a3.1,3.1,0,0,1,.28-.86,4.15,4.15,0,0,0-.72-1.53q-.49-.66-1.08-1.38a2.61,2.61,0,0,1-1.17-.38,8.73,8.73,0,0,1-.92-.68,7.49,7.49,0,0,0-.94-.65,2.5,2.5,0,0,0-1.19-.32,5.54,5.54,0,0,0-.39,1.23c-.08.45-.16.89-.25,1.32a8.89,8.89,0,0,1-.33,1.28,2.85,2.85,0,0,1-.59,1.07c-.12,1.48-.24,2.94-.36,4.37a25.1,25.1,0,0,1-.63,4,13.61,13.61,0,0,1-1.35,3.48A7.88,7.88,0,0,1,213,99a11.89,11.89,0,0,1-.47-2.25c-.07-.73-.12-1.45-.15-2.14s0-1.38-.06-2.06a14.45,14.45,0,0,0-.22-2,.23.23,0,0,0,.21,0,.64.64,0,0,0,.08-.14.67.67,0,0,1,.09-.14.25.25,0,0,1,.2-.07,1.35,1.35,0,0,1-.11-.77,2.41,2.41,0,0,1,.21-.55,2,2,0,0,0,.19-.57,1.48,1.48,0,0,0-.17-.82c.13,0,.22,0,.26,0a.27.27,0,0,1,.26-.08.7.7,0,0,1-.21-.4.5.5,0,0,1,0-.25.31.31,0,0,0,0-.19,1,1,0,0,0-.23-.3c0-.11.11-.14.18-.09s.14,0,.18-.17a5.24,5.24,0,0,0-.91-2,6.93,6.93,0,0,0-1.54-1.47,9.89,9.89,0,0,0-1.92-1.07,19.75,19.75,0,0,0-2.12-.75c-.67,1.78-1.36,3.58-2.08,5.42s-1.44,3.67-2.17,5.48-1.44,3.61-2.15,5.37-1.38,3.45-2,5.07a1.71,1.71,0,0,1,.42.75,3.28,3.28,0,0,0,.34.83h-.25c-.09,0-.13,0-.12.14a14.1,14.1,0,0,1,.77,1.47,13.05,13.05,0,0,0,.88,1.65,7.39,7.39,0,0,0,1.13,1.46,3,3,0,0,0,1.52.87,1.66,1.66,0,0,0,.55-.27,1.21,1.21,0,0,1,.76-.13c-.07-.19-.13-.31-.2-.33s0-.09,0-.23a1.23,1.23,0,0,0,1-.35,1.84,1.84,0,0,0,.34-.81,9.27,9.27,0,0,0,.12-.94,1.26,1.26,0,0,1,.4-.81,1.09,1.09,0,0,1-.14-.75m-30.27-7.28s.1,0,.22-.09a13.1,13.1,0,0,1,2.2-2.48c.83-.72,1.66-1.46,2.49-2.23a1.71,1.71,0,0,0,.54.27,1.4,1.4,0,0,0,.57.07.94.94,0,0,0,.5-.17.79.79,0,0,0,.31-.53c.19.16.35.18.5,0a1,1,0,0,0,.27-.4,21.18,21.18,0,0,1,1.88,2.93A16.81,16.81,0,0,0,187,97.55a3,3,0,0,0,.1.68,2.48,2.48,0,0,0,.29.55,1.57,1.57,0,0,1-.28,1,3,3,0,0,0-.43.83c-.95.58-1.86,1.14-2.74,1.7a7.85,7.85,0,0,1-2.89,1.1c-.2,0-.3.13-.28.36a12.59,12.59,0,0,0-2,.32c-.72.18-1.45.33-2.17.44a10.46,10.46,0,0,1-2.15.12,3.4,3.4,0,0,1-1.85-.66,5.13,5.13,0,0,1,.26-1.94,9.65,9.65,0,0,1,.75-1.59c.29-.5.59-1,.9-1.49a8.18,8.18,0,0,0,.78-1.63q.22-.11.27-.06m3.25,13.85a13.19,13.19,0,0,0,2.6-.86,4.41,4.41,0,0,0,1.29-.15,12.86,12.86,0,0,0,1.41-.46c.47-.19.92-.39,1.37-.61a8.23,8.23,0,0,0,1.13-.67l1.23-.37a4,4,0,0,0,1.11-.52,9.15,9.15,0,0,1,1.58-1.23,4.6,4.6,0,0,0,1.43-1.34,2.64,2.64,0,0,0,.81-1,5.35,5.35,0,0,0,.52-1.31,6.18,6.18,0,0,0,.2-1.44,6.08,6.08,0,0,0-.09-1.38,5.09,5.09,0,0,0-.34-1c-.15-.32-.3-.64-.46-1a6.57,6.57,0,0,1-.42-1,2.76,2.76,0,0,1-.13-1,34.44,34.44,0,0,1-2.23-3.6,34.67,34.67,0,0,0-2.19-3.59.85.85,0,0,0,.08-.58.29.29,0,0,0-.29-.26c-.15,0-.24-.11-.25-.31a1.07,1.07,0,0,0,.56-.74,8.9,8.9,0,0,1,.27-1,2.74,2.74,0,0,0-.2-.45,3,3,0,0,0-.21-.32,2.63,2.63,0,0,1-.2-.33,3.73,3.73,0,0,1-.18-.49c-.13,0-.21,0-.25.06a.27.27,0,0,1-.24.09,1.08,1.08,0,0,0-.39-.62c-.18-.14-.37-.27-.56-.39a5.3,5.3,0,0,1-.52-.42,1.17,1.17,0,0,1-.31-.69,1.9,1.9,0,0,0-1.22-.5,3.16,3.16,0,0,1-1.24-.28,5.78,5.78,0,0,0-.82.75,3.84,3.84,0,0,0-.58,1,7.12,7.12,0,0,1-.77.13l-.66.08c-.32.51-.6.92-.83,1.24a3.33,3.33,0,0,1-1.15.92l0,.49a2.18,2.18,0,0,0-.62.35,5.11,5.11,0,0,0-.48.45,3.57,3.57,0,0,1-.5.45,1.88,1.88,0,0,1-.65.32,2.33,2.33,0,0,1-.39.59,5.67,5.67,0,0,1-.5.48,5.64,5.64,0,0,0-.5.47,1.51,1.51,0,0,0-.36.6.88.88,0,0,0-.38.29,4.85,4.85,0,0,0-.28.4,1.1,1.1,0,0,1-.28.32.4.4,0,0,1-.43,0L170.08,94a22.85,22.85,0,0,0-2.1,3.5,14.91,14.91,0,0,0-1.28,4,12.28,12.28,0,0,0,.14,4.69,10.91,10.91,0,0,0,1.43,2.26,8.15,8.15,0,0,0,2,1.76,7.23,7.23,0,0,0,5.56,1,8.55,8.55,0,0,0,3.05,0M141.08,97q.3.3.6.66c.27-.07.45,0,.53.06a1.57,1.57,0,0,1,.22.38,11.67,11.67,0,0,0,2.8.61,29.76,29.76,0,0,0,3,.09c.44.07.81.15,1.12.23a1,1,0,0,0,.9-.22,9.94,9.94,0,0,0,1.91.63,13.38,13.38,0,0,1,2.14.69.4.4,0,0,1,.18,0l.21.06a.35.35,0,0,0,.09.23l.16.12a.28.28,0,0,1,.12.12.33.33,0,0,1,0,.23,2.07,2.07,0,0,1-.29.73,5.93,5.93,0,0,1-.46.56c-.16.18-.32.36-.47.55a1.61,1.61,0,0,0-.32.67c-.68.4-1.38.83-2.09,1.3s-1.48.91-2.27,1.32a14.85,14.85,0,0,1-2.56,1,9.55,9.55,0,0,1-2.92.36,1.19,1.19,0,0,0-.59.78,2.88,2.88,0,0,0,0,.93c0,.33.11.65.17,1a1.35,1.35,0,0,1-.08.83.15.15,0,0,0,.07.18,1.06,1.06,0,0,0,.2.12.19.19,0,0,1,.12.11s0,.09-.12.18l-.06.15a.49.49,0,0,0,0,.23c.13,0,.19.06.19.2s.06.22.19.23a2.63,2.63,0,0,0,.44.69q.27.28.6.57a4.64,4.64,0,0,1,1-.11c.34,0,.68,0,1,0a4.56,4.56,0,0,0,.95-.12,1.61,1.61,0,0,0,.75-.44c-.07.18,0,.26.11.22a.89.89,0,0,1,.36,0,30.36,30.36,0,0,0,3.28-1.47,21.88,21.88,0,0,0,3.12-2,14.33,14.33,0,0,0,2.58-2.52,9.37,9.37,0,0,0,1.65-3.12,3.85,3.85,0,0,0,.2-1.8c-.08-.61-.18-1.29-.28-2a5,5,0,0,0-1-1.28,3.26,3.26,0,0,1-.78-1.15c-.16-.16-.3-.22-.41-.16s-.23,0-.34-.28a2.72,2.72,0,0,0-.18-.92,3.08,3.08,0,0,0-.56-.93,3.28,3.28,0,0,0-.89-.72,2.42,2.42,0,0,0-1.2-.28,1,1,0,0,0-.54-.63,3.69,3.69,0,0,0-.87-.26c-.32,0-.64-.11-1-.18a1.4,1.4,0,0,1-.75-.42q.06-.24-.06-.3a.23.23,0,0,1-.09-.26c.5-.09,1-.19,1.42-.31a2.23,2.23,0,0,0,1.06-.59,2.55,2.55,0,0,0,1.13-.18l1.21-.42a4.44,4.44,0,0,1,1.18-.27,1.25,1.25,0,0,1,1,.36c.9-.16,1.91-.32,3.05-.48a11.3,11.3,0,0,1,3.43.07c.31-.2.61-.41.9-.64s.57-.44.83-.66A1.71,1.71,0,0,0,166,88a4.2,4.2,0,0,0-.8-.84,1.92,1.92,0,0,0-.32-.77c-.17-.24-.36-.49-.57-.74s-.41-.51-.61-.78a4.09,4.09,0,0,1-.47-.84,14.22,14.22,0,0,0-4.82-.25,22.13,22.13,0,0,0-4.38,1c-1.41.48-2.79,1-4.13,1.58a28,28,0,0,1-4,1.39q-.06.19.09.18a.14.14,0,0,1,.17.14c-.52.19-1.08.41-1.67.67a11.07,11.07,0,0,0-1.69.92A7.21,7.21,0,0,0,141.34,91a4.31,4.31,0,0,0-.93,1.74,2.47,2.47,0,0,1,.05,1q-.08.34-.18,1a1.16,1.16,0,0,1,.32.76c0,.24,0,.55-.09.94a3.62,3.62,0,0,0,.57.7m-26.23,1.83c.2.21.4.43.6.67.27-.07.45-.05.54,0a1.79,1.79,0,0,1,.21.39,11.29,11.29,0,0,0,2.8.6,27.16,27.16,0,0,0,3,.1c.43.07.81.14,1.12.22a1,1,0,0,0,.89-.21,10.21,10.21,0,0,0,1.91.62,14.59,14.59,0,0,1,2.15.69l.17,0,.21.06a.34.34,0,0,0,.09.22l.16.12a.4.4,0,0,1,.13.13.31.31,0,0,1,0,.22,1.78,1.78,0,0,1-.29.73,5,5,0,0,1-.45.56c-.17.18-.33.36-.48.55a1.53,1.53,0,0,0-.31.67c-.69.4-1.39.84-2.1,1.31a25,25,0,0,1-2.27,1.32,14.26,14.26,0,0,1-2.55,1,9.32,9.32,0,0,1-2.93.36,1.23,1.23,0,0,0-.59.78,2.69,2.69,0,0,0,0,.94c0,.32.1.64.16,1a1.32,1.32,0,0,1-.08.82.16.16,0,0,0,.07.18l.2.12c.07,0,.11.07.12.11s0,.1-.12.18l-.06.16a.51.51,0,0,0,0,.23c.12,0,.18.05.18.19a.21.21,0,0,0,.19.24,2.42,2.42,0,0,0,.45.69,8.07,8.07,0,0,0,.59.57,4.14,4.14,0,0,1,1-.11l1,0a4.55,4.55,0,0,0,.94-.12,1.58,1.58,0,0,0,.75-.43c-.06.18,0,.25.11.22a.77.77,0,0,1,.36,0,29.34,29.34,0,0,0,3.29-1.46,22.1,22.1,0,0,0,3.11-2,14.39,14.39,0,0,0,2.59-2.52,9.58,9.58,0,0,0,1.64-3.13,3.83,3.83,0,0,0,.2-1.8c-.08-.6-.17-1.28-.28-2a5,5,0,0,0-.94-1.28,3.06,3.06,0,0,1-.79-1.14c-.16-.17-.3-.22-.41-.17s-.22,0-.34-.28a2.53,2.53,0,0,0-.18-.92,3,3,0,0,0-.56-.93,3.31,3.31,0,0,0-.89-.72,2.31,2.31,0,0,0-1.2-.27,1,1,0,0,0-.53-.63,3.47,3.47,0,0,0-.88-.26l-.94-.19a1.31,1.31,0,0,1-.76-.42q.06-.23-.06-.3c-.08,0-.11-.13-.09-.26.5-.09,1-.19,1.42-.31a2.27,2.27,0,0,0,1.07-.59,2.73,2.73,0,0,0,1.13-.17l1.2-.43a5.52,5.52,0,0,1,1.18-.27,1.23,1.23,0,0,1,1,.37c.9-.17,1.92-.33,3-.48a11,11,0,0,1,3.43.06c.31-.2.62-.41.91-.63l.82-.67a1.67,1.67,0,0,0-.18-1.26A4.2,4.2,0,0,0,139,89a1.77,1.77,0,0,0-.32-.78c-.17-.24-.36-.49-.57-.74s-.41-.51-.6-.77a3.78,3.78,0,0,1-.48-.85,14.42,14.42,0,0,0-4.81-.25,22.4,22.4,0,0,0-4.39,1c-1.41.48-2.79,1-4.13,1.58a27.9,27.9,0,0,1-4,1.39c0,.13,0,.19.09.18a.14.14,0,0,1,.16.14c-.52.19-1.08.42-1.67.67a11.37,11.37,0,0,0-1.68.92,8,8,0,0,0-1.46,1.26,4.29,4.29,0,0,0-.92,1.74,2.43,2.43,0,0,1,0,1q-.06.34-.18,1a1.11,1.11,0,0,1,.32.76c0,.24,0,.56-.08.94a4,4,0,0,0,.56.7m-20.4,18c.87-.28,1.72-.54,2.55-.79a16.17,16.17,0,0,1,2.48-.53,6.58,6.58,0,0,1,2.42.13.19.19,0,0,0,.06-.25c0-.11,0-.18.14-.22.6-.09,1.25-.2,2-.33a9.11,9.11,0,0,1,2.16-.11,5,5,0,0,1,.53-.59.7.7,0,0,1,.63-.21c.16-.24.32-.52.49-.84a2.69,2.69,0,0,0,.32-.91,1.24,1.24,0,0,0-.15-.81,1.38,1.38,0,0,0-1-.51.61.61,0,0,0-.29-.53,2.56,2.56,0,0,0-.56-.24,3.45,3.45,0,0,1-.59-.23.75.75,0,0,1-.38-.54l-2.58.18c.17-.45.32-.84.43-1.19s.23-.71.35-1.07.24-.76.37-1.17.31-.92.52-1.52a6.15,6.15,0,0,1,.21-1.67c.18-.87.4-1.84.65-2.94s.5-2.22.74-3.37a24.14,24.14,0,0,0,.45-3c.76-.07,1.53-.16,2.33-.25s1.55-.23,2.27-.39a14.32,14.32,0,0,0,2-.6,5,5,0,0,0,1.48-.84c0-.26,0-.52,0-.78a2.61,2.61,0,0,0-.1-.72,1,1,0,0,0-.4-.52,1.67,1.67,0,0,0-.87-.24A2.09,2.09,0,0,0,112,88a4.48,4.48,0,0,0-1.63-.38,11.88,11.88,0,0,0-1.79,0,5,5,0,0,1-1.58-.12c-1.21.16-2.53.32-4,.46l-4.1.44a2.51,2.51,0,0,1-1.07.48c-.42.09-.87.17-1.33.24l-1.42.22a6.42,6.42,0,0,0-1.34.34.9.9,0,0,1,0,.66.71.71,0,0,1-.42.55,1.37,1.37,0,0,1,.52.93,2,2,0,0,1,0,1,9.67,9.67,0,0,1,.53,1,3.86,3.86,0,0,0,.52.84,2.32,2.32,0,0,0,.74.6,2.52,2.52,0,0,0,1.22.21A6.64,6.64,0,0,1,98.14,95q.85-.27,2.28-.6a15.79,15.79,0,0,1-.36,2.71c-.19.76-.41,1.6-.65,2.5a6.44,6.44,0,0,1-.23,1.6c-.14.5-.31,1-.5,1.52s-.39,1-.59,1.6a9.88,9.88,0,0,0-.47,1.8c-.25.68-.52,1.39-.8,2.13s-.58,1.52-.9,2.33a10.44,10.44,0,0,0-1.47.2q-.67.14-1.35.3l-1.39.33a12.51,12.51,0,0,1-1.62.26c-.16.17-.32.34-.46.51a1.15,1.15,0,0,0-.17.79c.13.4.25.82.37,1.25a11.46,11.46,0,0,0,.43,1.25,6.19,6.19,0,0,0,.61,1.1,2.66,2.66,0,0,0,.92.81,12.84,12.84,0,0,0,2.66-.55m-25.6-12.05s.1,0,.22-.09a13.09,13.09,0,0,1,2.21-2.47c.82-.72,1.65-1.46,2.49-2.23a2,2,0,0,0,.53.26,1.48,1.48,0,0,0,.58.08,1.07,1.07,0,0,0,.5-.17.79.79,0,0,0,.3-.53c.19.16.36.17.5,0a1,1,0,0,0,.28-.4,21.52,21.52,0,0,1,1.88,2.93A16.29,16.29,0,0,0,80.25,105a2.8,2.8,0,0,0,.11.68,2.19,2.19,0,0,0,.28.55,1.54,1.54,0,0,1-.27,1,2.86,2.86,0,0,0-.44.83c-1,.57-1.86,1.14-2.73,1.69a7.56,7.56,0,0,1-2.9,1.1q-.3,0-.27.36a11.29,11.29,0,0,0-2,.33c-.73.18-1.45.32-2.18.44a10.35,10.35,0,0,1-2.14.11,3.39,3.39,0,0,1-1.85-.65,5.13,5.13,0,0,1,.26-1.94,10.11,10.11,0,0,1,.74-1.6l.91-1.49a7.93,7.93,0,0,0,.78-1.63c.15-.06.23-.08.26-.06M72.1,118.6a14.27,14.27,0,0,0,2.61-.87,4,4,0,0,0,1.28-.14,14.67,14.67,0,0,0,1.42-.46c.47-.19.92-.39,1.36-.61a11.14,11.14,0,0,0,1.14-.67c.42-.13.83-.26,1.23-.37a4.11,4.11,0,0,0,1.1-.52,9.12,9.12,0,0,1,1.59-1.23,4.83,4.83,0,0,0,1.43-1.34,3,3,0,0,0,.81-1,6,6,0,0,0,.52-1.31,7.68,7.68,0,0,0,.2-1.44,6.84,6.84,0,0,0-.1-1.39,4.55,4.55,0,0,0-.33-1c-.15-.32-.31-.64-.47-1a7,7,0,0,1-.41-1,2.59,2.59,0,0,1-.13-1,30.41,30.41,0,0,1-2.23-3.59,35.92,35.92,0,0,0-2.19-3.6A.83.83,0,0,0,81,95.6c0-.18-.13-.27-.28-.27s-.24-.1-.25-.31a1,1,0,0,0,.55-.74,8.88,8.88,0,0,1,.28-1,2.59,2.59,0,0,0-.21-.44q-.11-.18-.21-.33a1.69,1.69,0,0,1-.19-.33,4.36,4.36,0,0,1-.19-.48q-.19,0-.24.06a.34.34,0,0,1-.24.09,1,1,0,0,0-.39-.62l-.56-.4a3.54,3.54,0,0,1-.52-.42,1.12,1.12,0,0,1-.32-.68A1.88,1.88,0,0,0,77,89.23,3.07,3.07,0,0,1,75.78,89a5.85,5.85,0,0,0-.82.74,4.23,4.23,0,0,0-.58,1,5.24,5.24,0,0,1-.77.13,5.59,5.59,0,0,0-.66.09c-.32.5-.6.91-.83,1.24a3.42,3.42,0,0,1-1.15.91l0,.5a1.92,1.92,0,0,0-.62.34,4.16,4.16,0,0,0-.48.46,5.47,5.47,0,0,1-.51.45,1.82,1.82,0,0,1-.64.31,2,2,0,0,1-.4.6,5.64,5.64,0,0,1-.5.47,5.67,5.67,0,0,0-.5.48,1.65,1.65,0,0,0-.35.59.9.9,0,0,0-.38.29,4.21,4.21,0,0,0-.28.4,1.14,1.14,0,0,1-.28.33.47.47,0,0,1-.44,0l-2.31,3.17A22.7,22.7,0,0,0,61.22,105a15.15,15.15,0,0,0-1.28,4,12.53,12.53,0,0,0,.13,4.7,11.39,11.39,0,0,0,1.44,2.26,8.31,8.31,0,0,0,2,1.76,7.32,7.32,0,0,0,5.57.94,8.52,8.52,0,0,0,3,0M42.69,99.86a12.34,12.34,0,0,1-3.06,2.06,3.1,3.1,0,0,0-1.32-1.24,11.92,11.92,0,0,1-1.65-1,12.59,12.59,0,0,1,3.72-1.71A19.29,19.29,0,0,1,45,97.2a17.57,17.57,0,0,1-2.29,2.66m5.64,9.86a3.43,3.43,0,0,1-.61.59l-.72.57a1.16,1.16,0,0,0-.44.75c-.72.33-1.4.68-2.06,1l-2,1.09c-.69.37-1.4.7-2.14,1a14.54,14.54,0,0,1-2.46.74c.26-1,.53-2,.81-3.1s.56-2,.83-2.91a15.93,15.93,0,0,0,1.94-.59,13.74,13.74,0,0,1,2-.62,7.23,7.23,0,0,1,5,.58,1,1,0,0,1-.13.85m-16.11-7.19a1.2,1.2,0,0,0,.85-.35,2,2,0,0,1,.29-1,1.27,1.27,0,0,1,.89-.52,3.31,3.31,0,0,1,.13,1.32,6.51,6.51,0,0,1-.24,1.1c-.12.35-.23.71-.33,1.07a3.23,3.23,0,0,0-.07,1.22,10.47,10.47,0,0,0-.47,1.86c-.07.49-.14,1-.19,1.37a11.32,11.32,0,0,1-.27,1.31,8.74,8.74,0,0,1-.69,1.67.37.37,0,0,0,.1.26.73.73,0,0,1,.16.18,1.49,1.49,0,0,0-.44.69,5,5,0,0,0-.19.83c-.05.29-.1.56-.15.83a1.32,1.32,0,0,1-.41.7,2.35,2.35,0,0,1,.37.92.58.58,0,0,0-.36.3,1.26,1.26,0,0,0-.14.44,3.12,3.12,0,0,0,0,.54c0,.19,0,.37,0,.55a3.56,3.56,0,0,0,.61,1c.24.3.31.56.2.77a.78.78,0,0,1,.56.44.79.79,0,0,1,.16.58,1.75,1.75,0,0,1,.58.2,2.11,2.11,0,0,1,.37.28l.32.32a1.52,1.52,0,0,0,.48.29.55.55,0,0,1,.46-.22l.79.06a2,2,0,0,0,.55-.57,7.49,7.49,0,0,0,.42-.75c.29.18.63.37,1,.57a6,6,0,0,0,1.13.45,2.46,2.46,0,0,0,.91.11c.23,0,.36-.2.36-.5a.32.32,0,0,1,.23.23.29.29,0,0,0,.22.23l.92-.21c.34-.08.65-.16,1-.26a4.93,4.93,0,0,0,.8-.34,1.32,1.32,0,0,0,.51-.48A16.91,16.91,0,0,0,48,118.4a36.48,36.48,0,0,0,4-2.47c.34-.33.55-.54.64-.65a2.75,2.75,0,0,0,.28-.37c.09-.13.23-.34.41-.63s.53-.8,1-1.52a1.61,1.61,0,0,0,0-.51.6.6,0,0,0-.33-.46.66.66,0,0,0,.15-.58,3,3,0,0,0-.28-.76l-.47-.88a5.26,5.26,0,0,1-.38-.9.7.7,0,0,1-.52-.27,5.19,5.19,0,0,0-1-1.09,13.77,13.77,0,0,0-1.23-.89q-.63-.4-1.26-.84a6.89,6.89,0,0,1-1.11-1,13.42,13.42,0,0,1,1.38-1.73,19.34,19.34,0,0,0,1.42-1.72,8.47,8.47,0,0,0,1.07-2,5.49,5.49,0,0,0,.26-2.45.32.32,0,0,0-.28-.21c-.13,0-.18-.11-.17-.26a1.91,1.91,0,0,0-.35-1,4.12,4.12,0,0,0-.78-.78c-.31-.24-.63-.46-1-.68a4.51,4.51,0,0,1-.87-.72.94.94,0,0,1-.64-.18l-.64-.47a4.35,4.35,0,0,0-.74-.46,1.64,1.64,0,0,0-.89-.17c-.12.06-.13.14,0,.25s.11.15,0,.13a2.24,2.24,0,0,0-1-.33,1.07,1.07,0,0,1-.71-.27,2.06,2.06,0,0,1-.63.17l-.8.08-.79.07a1.35,1.35,0,0,0-.63.22,13.78,13.78,0,0,0-3.77.55c-1.17.34-2.2.69-3.09,1-.13-.09-.2-.11-.19-.06s-.08.06-.23,0c-.72.21-1.47.44-2.24.69a13.19,13.19,0,0,0-2.16,1,8.59,8.59,0,0,0-1.79,1.33,4.16,4.16,0,0,0-1.09,1.81,9.34,9.34,0,0,0,1.88,2.64,7,7,0,0,0,2.76,1.64,2.45,2.45,0,0,1,.94-.2"/><path class="cls-3" d="M179.36,41.79l-1.12.82a1,1,0,0,1-1.18-.21c-.35-.48-.37-1.21.53-1.87s1.6-.41,1.94.07a.93.93,0,0,1-.17,1.19M181.17,43l.29.4a.33.33,0,0,1-.07.46l-1.79,1.3a.34.34,0,0,1-.47-.07l-.29-.4s0,0,0,0h0A1.44,1.44,0,1,1,181.14,43h0l0,0m-1.25-2.76h0a2.06,2.06,0,0,0-3.32,2.41l2.31,3h0A1.93,1.93,0,0,0,182,43.36h0Z"/><path class="cls-4" d="M179.36,41.79l-1.12.82a1,1,0,0,1-1.18-.21c-.35-.48-.37-1.21.53-1.87s1.6-.41,1.94.07A.93.93,0,0,1,179.36,41.79ZM181.17,43l.29.4a.33.33,0,0,1-.07.46l-1.79,1.3a.34.34,0,0,1-.47-.07l-.29-.4s0,0,0,0h0A1.44,1.44,0,1,1,181.14,43h0Zm-1.25-2.76h0a2.06,2.06,0,0,0-3.32,2.41l2.31,3h0A1.93,1.93,0,0,0,182,43.36h0Z"/><path class="cls-3" d="M184.68,32.24l-1.13.81a1,1,0,0,1-1.18-.21c-.34-.48-.37-1.2.54-1.86s1.59-.41,1.94.06a1,1,0,0,1-.17,1.2m1.8,1.21.3.4a.35.35,0,0,1-.08.47l-1.79,1.3a.34.34,0,0,1-.46-.08l-.29-.4a.05.05,0,0,1,0,0h0a1.44,1.44,0,0,1,2.33-1.68h0s0,0,0,0m-1.24-2.76h0a1.75,1.75,0,0,0-2.76-.31,1.77,1.77,0,0,0-.56,2.73l2.3,3h0a1.93,1.93,0,0,0,3.13-2.27h0Z"/><path class="cls-4" d="M184.68,32.24l-1.13.81a1,1,0,0,1-1.18-.21c-.34-.48-.37-1.2.54-1.86s1.59-.41,1.94.06A1,1,0,0,1,184.68,32.24Zm1.8,1.21.3.4a.35.35,0,0,1-.08.47l-1.79,1.3a.34.34,0,0,1-.46-.08l-.29-.4a.05.05,0,0,1,0,0h0a1.44,1.44,0,0,1,2.33-1.68h0S186.48,33.44,186.48,33.45Zm-1.24-2.76h0a1.75,1.75,0,0,0-2.76-.31,1.77,1.77,0,0,0-.56,2.73l2.3,3h0a1.93,1.93,0,0,0,3.13-2.27h0Z"/><path class="cls-3" d="M180.33,52.68l-1.12.82a1,1,0,0,1-1.18-.21c-.35-.48-.37-1.2.54-1.86s1.59-.42,1.93.06a.93.93,0,0,1-.17,1.19m1.81,1.22.29.4a.33.33,0,0,1-.07.46l-1.79,1.3a.34.34,0,0,1-.47-.07l-.29-.4s0,0,0,0h0a1.44,1.44,0,0,1,2.32-1.69h0l0,0m-1.24-2.76h0a2.06,2.06,0,0,0-3.33,2.41l2.31,3h0A1.93,1.93,0,0,0,183,54.25h0Z"/><path class="cls-4" d="M180.33,52.68l-1.12.82a1,1,0,0,1-1.18-.21c-.35-.48-.37-1.2.54-1.86s1.59-.42,1.93.06A.93.93,0,0,1,180.33,52.68Zm1.81,1.22.29.4a.33.33,0,0,1-.07.46l-1.79,1.3a.34.34,0,0,1-.47-.07l-.29-.4s0,0,0,0h0a1.44,1.44,0,0,1,2.32-1.69h0Zm-1.24-2.76h0a2.06,2.06,0,0,0-3.33,2.41l2.31,3h0A1.93,1.93,0,0,0,183,54.25h0Z"/><path class="cls-3" d="M193.06,25.56l-1.12.82a1,1,0,0,1-1.18-.21c-.35-.48-.37-1.2.53-1.86s1.6-.42,1.94.06a.93.93,0,0,1-.17,1.19m1.81,1.22.29.4a.33.33,0,0,1-.07.46l-1.79,1.3a.34.34,0,0,1-.47-.07l-.29-.4,0,0h0a1.44,1.44,0,1,1,2.32-1.69h0l0,0M193.62,24h0a1.75,1.75,0,0,0-2.76-.31,1.76,1.76,0,0,0-.56,2.72l2.31,3h0a1.93,1.93,0,0,0,3.12-2.27h0Z"/><path class="cls-4" d="M193.06,25.56l-1.12.82a1,1,0,0,1-1.18-.21c-.35-.48-.37-1.2.53-1.86s1.6-.42,1.94.06A.93.93,0,0,1,193.06,25.56Zm1.81,1.22.29.4a.33.33,0,0,1-.07.46l-1.79,1.3a.34.34,0,0,1-.47-.07l-.29-.4,0,0h0a1.44,1.44,0,1,1,2.32-1.69h0ZM193.62,24h0a1.75,1.75,0,0,0-2.76-.31,1.76,1.76,0,0,0-.56,2.72l2.31,3h0a1.93,1.93,0,0,0,3.12-2.27h0Z"/><path class="cls-3" d="M185.28,62.19l-1.13.82A1,1,0,0,1,183,62.8c-.35-.48-.37-1.21.54-1.87s1.59-.41,1.94.07a.93.93,0,0,1-.17,1.19m1.8,1.21.29.41a.32.32,0,0,1-.07.46l-1.79,1.3a.33.33,0,0,1-.46-.07l-.29-.41,0,0h0a1.44,1.44,0,1,1,2.33-1.69h0l0,0m-1.24-2.76h0a2.06,2.06,0,0,0-3.32,2.42l2.3,3h0A1.93,1.93,0,0,0,188,63.75h0Z"/><path class="cls-4" d="M185.28,62.19l-1.13.82A1,1,0,0,1,183,62.8c-.35-.48-.37-1.21.54-1.87s1.59-.41,1.94.07A.93.93,0,0,1,185.28,62.19Zm1.8,1.21.29.41a.32.32,0,0,1-.07.46l-1.79,1.3a.33.33,0,0,1-.46-.07l-.29-.41,0,0h0a1.44,1.44,0,1,1,2.33-1.69h0Zm-1.24-2.76h0a2.06,2.06,0,0,0-3.32,2.42l2.3,3h0A1.93,1.93,0,0,0,188,63.75h0Z"/><path class="cls-3" d="M215.25,30.28l-1.13.81a.94.94,0,0,1-1.18-.21c-.35-.47-.37-1.2.54-1.86s1.59-.41,1.94.07a.93.93,0,0,1-.17,1.19m1.8,1.21.29.4a.34.34,0,0,1-.07.47l-1.79,1.3a.33.33,0,0,1-.46-.08l-.29-.4,0,0h0A1.44,1.44,0,1,1,217,31.46h0l0,0m-1.24-2.76h0a1.76,1.76,0,0,0-2.77-.31,1.78,1.78,0,0,0-.56,2.73l2.31,3h0a1.93,1.93,0,0,0,3.12-2.27h0Z"/><path class="cls-4" d="M215.25,30.28l-1.13.81a.94.94,0,0,1-1.18-.21c-.35-.47-.37-1.2.54-1.86s1.59-.41,1.94.07A.93.93,0,0,1,215.25,30.28Zm1.8,1.21.29.4a.34.34,0,0,1-.07.47l-1.79,1.3a.33.33,0,0,1-.46-.08l-.29-.4,0,0h0A1.44,1.44,0,1,1,217,31.46h0Zm-1.24-2.76h0a1.76,1.76,0,0,0-2.77-.31,1.78,1.78,0,0,0-.56,2.73l2.31,3h0a1.93,1.93,0,0,0,3.12-2.27h0Z"/><path class="cls-3" d="M207.46,66.9l-1.13.82a.94.94,0,0,1-1.17-.21c-.35-.48-.38-1.2.53-1.86s1.59-.41,1.94.06a.93.93,0,0,1-.17,1.19m1.8,1.22.3.4a.35.35,0,0,1-.08.47l-1.78,1.29a.34.34,0,0,1-.47-.07l-.29-.4a.08.08,0,0,1,0,0h0a1.44,1.44,0,0,1,2.33-1.69h0s0,0,0,0M208,65.36h0a2.06,2.06,0,0,0-3.32,2.41l2.3,3h0a1.93,1.93,0,0,0,3.13-2.27h0Z"/><path class="cls-4" d="M207.46,66.9l-1.13.82a.94.94,0,0,1-1.17-.21c-.35-.48-.38-1.2.53-1.86s1.59-.41,1.94.06A.93.93,0,0,1,207.46,66.9Zm1.8,1.22.3.4a.35.35,0,0,1-.08.47l-1.78,1.29a.34.34,0,0,1-.47-.07l-.29-.4a.08.08,0,0,1,0,0h0a1.44,1.44,0,0,1,2.33-1.69h0S209.26,68.11,209.26,68.12ZM208,65.36h0a2.06,2.06,0,0,0-3.32,2.41l2.3,3h0a1.93,1.93,0,0,0,3.13-2.27h0Z"/><path class="cls-3" d="M221.06,40l-1.12.82a1,1,0,0,1-1.18-.21c-.35-.48-.37-1.21.54-1.87s1.59-.41,1.93.07a.93.93,0,0,1-.17,1.19m1.81,1.21.29.41a.33.33,0,0,1-.07.46l-1.79,1.3a.34.34,0,0,1-.47-.07l-.29-.41,0,0h0a1.44,1.44,0,1,1,2.32-1.69h0l0,0m-1.24-2.76h0a2.07,2.07,0,0,0-3.33,2.42l2.31,3h0a1.93,1.93,0,0,0,3.12-2.27h0Z"/><path class="cls-4" d="M221.06,40l-1.12.82a1,1,0,0,1-1.18-.21c-.35-.48-.37-1.21.54-1.87s1.59-.41,1.93.07A.93.93,0,0,1,221.06,40Zm1.81,1.21.29.41a.33.33,0,0,1-.07.46l-1.79,1.3a.34.34,0,0,1-.47-.07l-.29-.41,0,0h0a1.44,1.44,0,1,1,2.32-1.69h0Zm-1.24-2.76h0a2.07,2.07,0,0,0-3.33,2.42l2.31,3h0a1.93,1.93,0,0,0,3.12-2.27h0Z"/><path class="cls-3" d="M216.72,60.42l-1.13.81a1,1,0,0,1-1.18-.21c-.35-.48-.37-1.2.54-1.86s1.59-.41,1.94.06a1,1,0,0,1-.17,1.2m1.8,1.21.29.4a.34.34,0,0,1-.07.47L217,63.8a.33.33,0,0,1-.46-.08l-.29-.4,0,0h0a1.44,1.44,0,1,1,2.33-1.69h0l0,0m-1.24-2.76h0a1.75,1.75,0,0,0-2.76-.31,1.77,1.77,0,0,0-.56,2.73l2.3,3h0A1.93,1.93,0,0,0,219.39,62h0Z"/><path class="cls-4" d="M216.72,60.42l-1.13.81a1,1,0,0,1-1.18-.21c-.35-.48-.37-1.2.54-1.86s1.59-.41,1.94.06A1,1,0,0,1,216.72,60.42Zm1.8,1.21.29.4a.34.34,0,0,1-.07.47L217,63.8a.33.33,0,0,1-.46-.08l-.29-.4,0,0h0a1.44,1.44,0,1,1,2.33-1.69h0Zm-1.24-2.76h0a1.75,1.75,0,0,0-2.76-.31,1.77,1.77,0,0,0-.56,2.73l2.3,3h0A1.93,1.93,0,0,0,219.39,62h0Z"/><path class="cls-3" d="M195.8,67.21l-1.12.81a.94.94,0,0,1-1.18-.21c-.35-.47-.37-1.2.54-1.86s1.59-.41,1.93.07a.93.93,0,0,1-.17,1.19m1.81,1.21.29.4a.34.34,0,0,1-.07.47L196,70.59a.35.35,0,0,1-.47-.08l-.29-.4,0,0h0a1.44,1.44,0,1,1,2.32-1.69h0l0,0m-1.24-2.76h0A2.07,2.07,0,0,0,193,68.08l2.31,3h0a1.93,1.93,0,0,0,3.12-2.27h0Z"/><path class="cls-4" d="M195.8,67.21l-1.12.81a.94.94,0,0,1-1.18-.21c-.35-.47-.37-1.2.54-1.86s1.59-.41,1.93.07A.93.93,0,0,1,195.8,67.21Zm1.81,1.21.29.4a.34.34,0,0,1-.07.47L196,70.59a.35.35,0,0,1-.47-.08l-.29-.4,0,0h0a1.44,1.44,0,1,1,2.32-1.69h0Zm-1.24-2.76h0A2.07,2.07,0,0,0,193,68.08l2.31,3h0a1.93,1.93,0,0,0,3.12-2.27h0Z"/><path class="cls-3" d="M204.84,24.71l-1.13.82a1,1,0,0,1-1.18-.21c-.35-.48-.37-1.21.54-1.87s1.59-.41,1.94.07a.93.93,0,0,1-.17,1.19m1.8,1.21.29.41a.32.32,0,0,1-.07.46l-1.79,1.3a.33.33,0,0,1-.46-.07l-.29-.41,0,0h0a1.44,1.44,0,1,1,2.33-1.69h0l0,0m-1.24-2.76h0a1.76,1.76,0,0,0-2.77-.3,1.77,1.77,0,0,0-.56,2.72l2.31,3h0a1.93,1.93,0,0,0,3.12-2.27h0Z"/><path class="cls-4" d="M204.84,24.71l-1.13.82a1,1,0,0,1-1.18-.21c-.35-.48-.37-1.21.54-1.87s1.59-.41,1.94.07A.93.93,0,0,1,204.84,24.71Zm1.8,1.21.29.41a.32.32,0,0,1-.07.46l-1.79,1.3a.33.33,0,0,1-.46-.07l-.29-.41,0,0h0a1.44,1.44,0,1,1,2.33-1.69h0Zm-1.24-2.76h0a1.76,1.76,0,0,0-2.77-.3,1.77,1.77,0,0,0-.56,2.72l2.31,3h0a1.93,1.93,0,0,0,3.12-2.27h0Z"/><path class="cls-3" d="M221.39,50.72l-1.13.82a1,1,0,0,1-1.18-.21c-.35-.48-.37-1.2.54-1.86s1.59-.42,1.94.06a.93.93,0,0,1-.17,1.19m1.8,1.22.29.4a.32.32,0,0,1-.07.46l-1.79,1.3a.32.32,0,0,1-.46-.07l-.29-.4,0,0h0a1.44,1.44,0,0,1,2.33-1.69h0l0,0M222,49.18h0a2.06,2.06,0,0,0-3.32,2.41l2.3,3h0a1.93,1.93,0,0,0,3.13-2.27h0Z"/><path class="cls-4" d="M221.39,50.72l-1.13.82a1,1,0,0,1-1.18-.21c-.35-.48-.37-1.2.54-1.86s1.59-.42,1.94.06A.93.93,0,0,1,221.39,50.72Zm1.8,1.22.29.4a.32.32,0,0,1-.07.46l-1.79,1.3a.32.32,0,0,1-.46-.07l-.29-.4,0,0h0a1.44,1.44,0,0,1,2.33-1.69h0ZM222,49.18h0a2.06,2.06,0,0,0-3.32,2.41l2.3,3h0a1.93,1.93,0,0,0,3.13-2.27h0Z"/><path class="cls-3" d="M200.38,47a5.44,5.44,0,1,1,7.41-2,5.45,5.45,0,0,1-7.41,2m-.23,10.5a.66.66,0,0,1-.91.25l-7.49-4.28a.67.67,0,0,1-.25-.91l.25-.43.53-.93,1.57-2.74a2.84,2.84,0,0,1,3.87-1.06l3.67,2.1a2.84,2.84,0,0,1,1.05,3.87s-.69,1.4-1.48,2.7l0,.08Zm10.54-11.32,2.08-3.16c2-3.43-.82-4.36-6-7.29s-7.33-4.86-9.3-1.43l-1.67,3.4-2.91,7.36-3.17,5.66-1.14,1.52c-2,3.43,1.6,7,4,8.35s7.25,2.63,9.21-.8l.73-1.77,3.31-5.64Z"/></g></svg>